# xmcd
#
# Track frame offsets:
# 150
# 21769
# 43171
# 60480
# 79758
# 95788
# 110401
# 128372
# 142213
# 166230
# 182932
# 187210
# 207311
# 224154
# 242057
# 261284
# 276912
# 298668
# 312674
# 323528
#
# Disc length: 4538 seconds
#
# Revision: 0
# Processed by: cddbd v1.5.1PL2 Copyright (c) Steve Scherf et al.
# Submitted via: Audion 3.0.2 (http://www.panic.com/audion/)
#
DISCID=4011b814
DTITLE=Jars of Clay, etc. - Julia's music
DYEAR=1900
DGENRE=
TTITLE0=wet
TTITLE1=wet
TTITLE2=wet
TTITLE3=wet
TTITLE4=wt
TTITLE5=wet
TTITLE6=wet
TTITLE7=wet
TTITLE8=wet
TTITLE9=wet
TTITLE10=wet
TTITLE11=wet
TTITLE12=wetwet
TTITLE13=wet
TTITLE14=wet
TTITLE15=wet
TTITLE16=wet
TTITLE17=wetwe
TTITLE18=wetwe
TTITLE19=awetw
EXTD=
EXTT0=
EXTT1=
EXTT2=
EXTT3=
EXTT4=
EXTT5=
EXTT6=
EXTT7=
EXTT8=
EXTT9=
EXTT10=
EXTT11=
EXTT12=
EXTT13=
EXTT14=
EXTT15=
EXTT16=
EXTT17=
EXTT18=
EXTT19=
PLAYORDER=
